<svg width="39" height="39" viewBox="0 0 39 39" fill="none" xmlns="http://www.w3.org/2000/svg">
<path d="M24.375 6.5H29.25C29.681 6.5 30.0943 6.67121 30.399 6.97595C30.7038 7.2807 30.875 7.69402 30.875 8.125V32.5C30.875 32.931 30.7038 33.3443 30.399 33.649C30.0943 33.9538 29.681 34.125 29.25 34.125H9.75C9.31902 34.125 8.9057 33.9538 8.60095 33.649C8.29621 33.3443 8.125 32.931 8.125 32.5V8.125C8.125 7.69402 8.29621 7.2807 8.60095 6.97595C8.9057 6.67121 9.31902 6.5 9.75 6.5H14.625M14.625 11.375H24.375M14.625 19.5H24.375M14.625 26H24.375M16.25 4.875V11.375H22.75V4.875H16.25Z" stroke="white" stroke-width="3" stroke-linecap="round" stroke-linejoin="round"/>
</svg>
